<mxfile host="app.diagrams.net" modified="2020-11-09T21:14:36.494Z" agent="5.0 (Macintosh; Intel Mac OS X 10_15_7) AppleWebKit/537.36 (KHTML, like Gecko) Chrome/86.0.4240.111 Safari/537.36" etag="nXi2MHxF3u0U2kkadWC3" version="13.9.2" type="github">
  <diagram name="Page-1" id="ad52d381-51e7-2e0d-a935-2d0ddd2fd229">
    <mxGraphModel dx="946" dy="557" grid="1" gridSize="10" guides="1" tooltips="1" connect="1" arrows="1" fold="1" page="1" pageScale="1" pageWidth="1100" pageHeight="850" background="#ffffff" math="0" shadow="0">
      <root>
        <mxCell id="0" />
        <mxCell id="1" parent="0" />
        <mxCell id="Q6qwimNW2Hj8iwQ-JfMR-26" value="Architecture&lt;br&gt;Fundamentals" style="ellipse;whiteSpace=wrap;html=1;align=center;newEdgeStyle={&quot;edgeStyle&quot;:&quot;entityRelationEdgeStyle&quot;,&quot;startArrow&quot;:&quot;none&quot;,&quot;endArrow&quot;:&quot;none&quot;,&quot;segment&quot;:10,&quot;curved&quot;:1};treeFolding=1;treeMoving=1;fillColor=none;" vertex="1" parent="1">
          <mxGeometry x="350" y="510" width="100" height="40" as="geometry" />
        </mxCell>
        <mxCell id="Q6qwimNW2Hj8iwQ-JfMR-27" value="Reliability" style="whiteSpace=wrap;html=1;rounded=1;arcSize=50;align=center;verticalAlign=middle;strokeWidth=1;autosize=1;spacing=4;treeFolding=1;treeMoving=1;newEdgeStyle={&quot;edgeStyle&quot;:&quot;entityRelationEdgeStyle&quot;,&quot;startArrow&quot;:&quot;none&quot;,&quot;endArrow&quot;:&quot;none&quot;,&quot;segment&quot;:10,&quot;curved&quot;:1};fillColor=none;" vertex="1" collapsed="1" parent="1">
          <mxGeometry x="540" y="440" width="90" height="30" as="geometry" />
        </mxCell>
        <mxCell id="Q6qwimNW2Hj8iwQ-JfMR-28" value="" style="edgeStyle=entityRelationEdgeStyle;startArrow=none;endArrow=none;segment=10;curved=1;exitX=0.5;exitY=0;exitDx=0;exitDy=0;" edge="1" target="Q6qwimNW2Hj8iwQ-JfMR-27" parent="1" source="Q6qwimNW2Hj8iwQ-JfMR-26">
          <mxGeometry relative="1" as="geometry">
            <mxPoint x="438" y="510" as="sourcePoint" />
          </mxGeometry>
        </mxCell>
        <mxCell id="Q6qwimNW2Hj8iwQ-JfMR-29" value="Operational&amp;nbsp;&lt;br&gt;Excellence" style="whiteSpace=wrap;html=1;rounded=1;arcSize=50;align=center;verticalAlign=middle;strokeWidth=1;autosize=1;spacing=4;treeFolding=1;treeMoving=1;newEdgeStyle={&quot;edgeStyle&quot;:&quot;entityRelationEdgeStyle&quot;,&quot;startArrow&quot;:&quot;none&quot;,&quot;endArrow&quot;:&quot;none&quot;,&quot;segment&quot;:10,&quot;curved&quot;:1};fillColor=none;" vertex="1" collapsed="1" parent="1">
          <mxGeometry x="530" y="630" width="110" height="40" as="geometry" />
        </mxCell>
        <mxCell id="Q6qwimNW2Hj8iwQ-JfMR-30" value="" style="edgeStyle=entityRelationEdgeStyle;startArrow=none;endArrow=none;segment=10;curved=1;exitX=0.5;exitY=1;exitDx=0;exitDy=0;" edge="1" parent="1" target="Q6qwimNW2Hj8iwQ-JfMR-29" source="Q6qwimNW2Hj8iwQ-JfMR-26">
          <mxGeometry relative="1" as="geometry">
            <mxPoint x="400" y="670" as="sourcePoint" />
          </mxGeometry>
        </mxCell>
        <mxCell id="Q6qwimNW2Hj8iwQ-JfMR-31" value="Security" style="whiteSpace=wrap;html=1;rounded=1;arcSize=50;align=center;verticalAlign=middle;strokeWidth=1;autosize=1;spacing=4;treeFolding=1;treeMoving=1;newEdgeStyle={&quot;edgeStyle&quot;:&quot;entityRelationEdgeStyle&quot;,&quot;startArrow&quot;:&quot;none&quot;,&quot;endArrow&quot;:&quot;none&quot;,&quot;segment&quot;:10,&quot;curved&quot;:1};fillColor=none;" vertex="1" collapsed="1" parent="1">
          <mxGeometry x="290" y="370" width="80" height="30" as="geometry" />
        </mxCell>
        <mxCell id="Q6qwimNW2Hj8iwQ-JfMR-32" value="" style="edgeStyle=entityRelationEdgeStyle;startArrow=none;endArrow=none;segment=10;curved=1;exitX=0;exitY=0;exitDx=0;exitDy=0;entryX=0.5;entryY=1;entryDx=0;entryDy=0;" edge="1" parent="1" target="Q6qwimNW2Hj8iwQ-JfMR-31" source="Q6qwimNW2Hj8iwQ-JfMR-26">
          <mxGeometry relative="1" as="geometry">
            <mxPoint x="150" y="330" as="sourcePoint" />
          </mxGeometry>
        </mxCell>
        <mxCell id="Q6qwimNW2Hj8iwQ-JfMR-33" value="Cost Optimization" style="whiteSpace=wrap;html=1;rounded=1;arcSize=50;align=center;verticalAlign=middle;strokeWidth=1;autosize=1;spacing=4;treeFolding=1;treeMoving=1;newEdgeStyle={&quot;edgeStyle&quot;:&quot;entityRelationEdgeStyle&quot;,&quot;startArrow&quot;:&quot;none&quot;,&quot;endArrow&quot;:&quot;none&quot;,&quot;segment&quot;:10,&quot;curved&quot;:1};fillColor=none;" vertex="1" collapsed="1" parent="1">
          <mxGeometry x="115" y="480" width="140" height="30" as="geometry" />
        </mxCell>
        <mxCell id="Q6qwimNW2Hj8iwQ-JfMR-34" value="" style="edgeStyle=entityRelationEdgeStyle;startArrow=none;endArrow=none;segment=10;curved=1;exitX=0;exitY=0.5;exitDx=0;exitDy=0;entryX=1;entryY=0.5;entryDx=0;entryDy=0;" edge="1" target="Q6qwimNW2Hj8iwQ-JfMR-33" parent="1" source="Q6qwimNW2Hj8iwQ-JfMR-26">
          <mxGeometry relative="1" as="geometry">
            <mxPoint y="550" as="sourcePoint" />
          </mxGeometry>
        </mxCell>
        <mxCell id="Q6qwimNW2Hj8iwQ-JfMR-35" value="Cost Optimization" style="whiteSpace=wrap;html=1;rounded=1;arcSize=50;align=center;verticalAlign=middle;strokeWidth=1;autosize=1;spacing=4;treeFolding=1;treeMoving=1;newEdgeStyle={&quot;edgeStyle&quot;:&quot;entityRelationEdgeStyle&quot;,&quot;startArrow&quot;:&quot;none&quot;,&quot;endArrow&quot;:&quot;none&quot;,&quot;segment&quot;:10,&quot;curved&quot;:1};fillColor=none;" vertex="1" collapsed="1" parent="1">
          <mxGeometry x="130" y="640" width="140" height="30" as="geometry" />
        </mxCell>
        <mxCell id="Q6qwimNW2Hj8iwQ-JfMR-36" value="" style="edgeStyle=entityRelationEdgeStyle;startArrow=none;endArrow=none;segment=10;curved=1;exitX=0;exitY=1;exitDx=0;exitDy=0;entryX=1;entryY=0.5;entryDx=0;entryDy=0;" edge="1" parent="1" target="Q6qwimNW2Hj8iwQ-JfMR-35" source="Q6qwimNW2Hj8iwQ-JfMR-26">
          <mxGeometry relative="1" as="geometry">
            <mxPoint x="352" y="570" as="sourcePoint" />
          </mxGeometry>
        </mxCell>
      </root>
    </mxGraphModel>
  </diagram>
</mxfile>
